# xmcd
#
# Track frame offsets:
#	150
#	23665
#	38097
#	53740
#	68597
#	83452
#	98127
#	107205
#	124845
#	140262
#	157190
#	173122
#
# Disc length: 2500 seconds
#
# Revision: 1
# Processed by: cddbd v1.5PL3 Copyright (c) Steve Scherf et al.
# Submitted via: CDex 1.50Beta5
#
DISCID=9209c20c
DTITLE=神津善行 - プロレスQ8 時だヨ!全員集合〜格闘音楽大全
DYEAR=2000
DGENRE=Other
TTITLE0=神津善行/朝日に栄光あれ〜テレビ朝日スポーツ・テーマ
TTITLE1=水木一郎/タイガーマスクII世
TTITLE2=弘妃由美/怒りの獣神
TTITLE3=桜庭伸幸/荒野の砂塵
TTITLE4=上田力&パワー・ステーション/URBAN SUNRISE
TTITLE5=戸塚修/望〜継げし者たち
TTITLE6=川井憲次/QUICK AS LIGHTNING!
TTITLE7=JUNKY MONKEY BABYS/超闘王のテーマ
TTITLE8=鈴木修/HOLD OUT
TTITLE9=鈴木修/爆勝宣言
TTITLE10=鈴木修/RISING
TTITLE11=MICHAEL MASSER/炎のファイター〜INOKI BOM-BA-YE〜
EXTD=
EXTT0=
EXTT1=
EXTT2=
EXTT3=
EXTT4=
EXTT5=
EXTT6=
EXTT7=
EXTT8=
EXTT9=
EXTT10=
EXTT11=
PLAYORDER=
